<svg width="1600" height="560" viewBox="0 0 1600 560" fill="none" xmlns="http://www.w3.org/2000/svg">
  <defs>
    <linearGradient id="bg" x1="144" y1="44" x2="1458" y2="528" gradientUnits="userSpaceOnUse">
      <stop stop-color="#040816"/>
      <stop offset="0.5" stop-color="#0A1324"/>
      <stop offset="1" stop-color="#111827"/>
    </linearGradient>
    <linearGradient id="strokeA" x1="124" y1="124" x2="1476" y2="124" gradientUnits="userSpaceOnUse">
      <stop stop-color="#22D3EE" stop-opacity="0"/>
      <stop offset="0.2" stop-color="#22D3EE"/>
      <stop offset="0.8" stop-color="#67E8F9"/>
      <stop offset="1" stop-color="#22D3EE" stop-opacity="0"/>
    </linearGradient>
    <linearGradient id="accent" x1="300" y1="420" x2="1260" y2="180" gradientUnits="userSpaceOnUse">
      <stop stop-color="#F97316"/>
      <stop offset="1" stop-color="#22D3EE"/>
    </linearGradient>
    <filter id="blurA" x="0" y="0" width="1600" height="560" filterUnits="userSpaceOnUse" color-interpolation-filters="sRGB">
      <feFlood flood-opacity="0" result="BackgroundImageFix"/>
      <feBlend mode="normal" in="SourceGraphic" in2="BackgroundImageFix" result="shape"/>
      <feGaussianBlur stdDeviation="70" result="effect1_foregroundBlur_1_1"/>
    </filter>
  </defs>

  <rect width="1600" height="560" rx="32" fill="url(#bg)"/>

  <g opacity="0.1">
    <path d="M72 86H1528" stroke="white"/>
    <path d="M72 160H1528" stroke="white"/>
    <path d="M72 234H1528" stroke="white"/>
    <path d="M72 308H1528" stroke="white"/>
    <path d="M72 382H1528" stroke="white"/>
    <path d="M72 456H1528" stroke="white"/>
    <path d="M152 40V520" stroke="white"/>
    <path d="M396 40V520" stroke="white"/>
    <path d="M640 40V520" stroke="white"/>
    <path d="M884 40V520" stroke="white"/>
    <path d="M1128 40V520" stroke="white"/>
    <path d="M1372 40V520" stroke="white"/>
  </g>

  <g filter="url(#blurA)" opacity="0.72">
    <circle cx="1280" cy="104" r="92" fill="#22D3EE"/>
    <circle cx="334" cy="452" r="110" fill="#F97316"/>
  </g>

  <rect x="96" y="60" width="1408" height="440" rx="28" fill="#08111E" fill-opacity="0.58" stroke="#1E293B"/>
  <path d="M122 124H1478" stroke="url(#strokeA)" stroke-width="2"/>
  <path d="M188 422L506 284L774 336L1046 212L1412 252" stroke="url(#accent)" stroke-width="4" stroke-linecap="round"/>
  <path d="M188 446L506 332L784 398L1068 288L1412 392" stroke="#67E8F9" stroke-opacity="0.45" stroke-width="2" stroke-dasharray="10 12"/>

  <g opacity="0.9">
    <rect x="144" y="102" width="222" height="40" rx="20" fill="#09121F" stroke="#164E63"/>
    <circle cx="170" cy="122" r="6" fill="#22D3EE"/>
    <text x="188" y="128" fill="#CFFAFE" font-family="'Microsoft YaHei', 'PingFang SC', 'Noto Sans SC', sans-serif" font-size="17">PUREDEVGO / ONLINE</text>
  </g>

  <g opacity="0.98">
    <text x="144" y="218" fill="#67E8F9" font-family="Consolas, 'Courier New', monospace" font-size="24" letter-spacing="4">FULL-STACK / PRODUCT / SYSTEMS</text>
    <text x="144" y="306" fill="#F8FAFC" font-family="'Microsoft YaHei', 'PingFang SC', 'Noto Sans SC', sans-serif" font-size="74" font-weight="700">把复杂问题做简单</text>
    <text x="144" y="390" fill="#F8FAFC" font-family="'Microsoft YaHei', 'PingFang SC', 'Noto Sans SC', sans-serif" font-size="74" font-weight="700">把想法真正做成产品</text>
    <text x="148" y="438" fill="#94A3B8" font-family="'Microsoft YaHei', 'PingFang SC', 'Noto Sans SC', sans-serif" font-size="25">前端 / 后端 / 自动化 / AI 工作流 / 产品工程</text>
  </g>

  <g opacity="0.95">
    <rect x="1030" y="182" width="340" height="176" rx="18" fill="#09121F" stroke="#22364B"/>
    <text x="1058" y="224" fill="#67E8F9" font-family="'Microsoft YaHei', 'PingFang SC', 'Noto Sans SC', sans-serif" font-size="21">当前信号</text>
    <text x="1058" y="268" fill="#E2E8F0" font-family="'Microsoft YaHei', 'PingFang SC', 'Noto Sans SC', sans-serif" font-size="22">身份 ........ 全栈开发者</text>
    <text x="1058" y="302" fill="#E2E8F0" font-family="'Microsoft YaHei', 'PingFang SC', 'Noto Sans SC', sans-serif" font-size="22">方向 ........ 产品 + 系统</text>
    <text x="1058" y="336" fill="#E2E8F0" font-family="'Microsoft YaHei', 'PingFang SC', 'Noto Sans SC', sans-serif" font-size="22">特征 ........ 追求完成度</text>
    <text x="1058" y="370" fill="#F97316" font-family="'Microsoft YaHei', 'PingFang SC', 'Noto Sans SC', sans-serif" font-size="22">状态 ........ 持续构建中</text>
  </g>

  <g opacity="0.66">
    <text x="144" y="472" fill="#475569" font-family="Consolas, 'Courier New', monospace" font-size="15">PROFILE README / 2026</text>
    <text x="1314" y="472" fill="#475569" font-family="Consolas, 'Courier New', monospace" font-size="15">PUREDEVGO</text>
  </g>
</svg>
