<svg width="1600" height="520" viewBox="0 0 1600 520" fill="none" xmlns="http://www.w3.org/2000/svg">
  <defs>
    <linearGradient id="bg" x1="120" y1="60" x2="1450" y2="460" gradientUnits="userSpaceOnUse">
      <stop stop-color="#020617"/>
      <stop offset="0.52" stop-color="#0F172A"/>
      <stop offset="1" stop-color="#111827"/>
    </linearGradient>
    <linearGradient id="lineA" x1="262" y1="116" x2="1278" y2="402" gradientUnits="userSpaceOnUse">
      <stop stop-color="#22D3EE"/>
      <stop offset="1" stop-color="#F97316"/>
    </linearGradient>
    <linearGradient id="lineB" x1="1094" y1="64" x2="481" y2="420" gradientUnits="userSpaceOnUse">
      <stop stop-color="#67E8F9" stop-opacity="0.9"/>
      <stop offset="1" stop-color="#FDBA74" stop-opacity="0.12"/>
    </linearGradient>
    <filter id="blurA" x="0" y="0" width="1600" height="520" filterUnits="userSpaceOnUse" color-interpolation-filters="sRGB">
      <feFlood flood-opacity="0" result="BackgroundImageFix"/>
      <feBlend mode="normal" in="SourceGraphic" in2="BackgroundImageFix" result="shape"/>
      <feGaussianBlur stdDeviation="32" result="effect1_foregroundBlur_1_8"/>
    </filter>
    <filter id="blurB" x="0" y="0" width="1600" height="520" filterUnits="userSpaceOnUse" color-interpolation-filters="sRGB">
      <feFlood flood-opacity="0" result="BackgroundImageFix"/>
      <feBlend mode="normal" in="SourceGraphic" in2="BackgroundImageFix" result="shape"/>
      <feGaussianBlur stdDeviation="80" result="effect1_foregroundBlur_1_8"/>
    </filter>
  </defs>

  <rect width="1600" height="520" rx="32" fill="url(#bg)"/>

  <g opacity="0.12">
    <path d="M80 86H1520" stroke="white" stroke-width="1"/>
    <path d="M80 164H1520" stroke="white" stroke-width="1"/>
    <path d="M80 242H1520" stroke="white" stroke-width="1"/>
    <path d="M80 320H1520" stroke="white" stroke-width="1"/>
    <path d="M80 398H1520" stroke="white" stroke-width="1"/>
    <path d="M164 40V478" stroke="white" stroke-width="1"/>
    <path d="M412 40V478" stroke="white" stroke-width="1"/>
    <path d="M660 40V478" stroke="white" stroke-width="1"/>
    <path d="M908 40V478" stroke="white" stroke-width="1"/>
    <path d="M1156 40V478" stroke="white" stroke-width="1"/>
    <path d="M1404 40V478" stroke="white" stroke-width="1"/>
  </g>

  <g filter="url(#blurB)" opacity="0.7">
    <circle cx="1242" cy="108" r="98" fill="#22D3EE"/>
    <circle cx="336" cy="438" r="104" fill="#F97316"/>
  </g>

  <path d="M175 390L522 132L786 299L1101 111L1413 248" stroke="url(#lineA)" stroke-width="8" stroke-linecap="round"/>
  <path d="M192 416L458 225L761 364L1042 205L1352 339" stroke="url(#lineB)" stroke-width="3" stroke-linecap="round" stroke-dasharray="8 12"/>

  <g filter="url(#blurA)">
    <circle cx="522" cy="132" r="12" fill="#67E8F9"/>
    <circle cx="786" cy="299" r="12" fill="#F8FAFC"/>
    <circle cx="1101" cy="111" r="12" fill="#67E8F9"/>
    <circle cx="1413" cy="248" r="12" fill="#FB923C"/>
  </g>

  <g opacity="0.95">
    <text x="126" y="168" fill="#E2E8F0" font-family="Segoe UI, Arial, sans-serif" font-size="30" letter-spacing="6">PUREDEVGO</text>
    <text x="120" y="248" fill="#F8FAFC" font-family="Segoe UI, Arial, sans-serif" font-size="92" font-weight="700">BUILD WHAT</text>
    <text x="120" y="338" fill="#F8FAFC" font-family="Segoe UI, Arial, sans-serif" font-size="92" font-weight="700">FEELS ALIVE</text>
    <text x="126" y="392" fill="#94A3B8" font-family="Consolas, 'Courier New', monospace" font-size="26">frontend + backend + automation + AI workflows</text>
  </g>

  <g opacity="0.78">
    <rect x="1182" y="350" width="250" height="72" rx="14" fill="#0F172A" stroke="#334155"/>
    <text x="1210" y="393" fill="#E2E8F0" font-family="Consolas, 'Courier New', monospace" font-size="24">status: shipping</text>
  </g>
</svg>
